<mxfile host="Electron" agent="Mozilla/5.0 (Windows NT 10.0; Win64; x64) AppleWebKit/537.36 (KHTML, like Gecko) draw.io/24.7.8 Chrome/128.0.6613.36 Electron/32.0.1 Safari/537.36" version="24.7.8">
  <diagram name="Page-1" id="d5mSiP_GxrQjv96jr39f">
    <mxGraphModel dx="1104" dy="508" grid="1" gridSize="10" guides="1" tooltips="1" connect="1" arrows="1" fold="1" page="1" pageScale="1" pageWidth="850" pageHeight="1100" math="0" shadow="0">
      <root>
        <mxCell id="0" />
        <mxCell id="1" parent="0" />
        <mxCell id="3JgUT-gqx7XL1_imfjOH-5" style="edgeStyle=orthogonalEdgeStyle;rounded=0;orthogonalLoop=1;jettySize=auto;html=1;exitX=0.5;exitY=0;exitDx=0;exitDy=0;exitPerimeter=0;entryX=0;entryY=0.5;entryDx=0;entryDy=0;" edge="1" parent="1" source="vaIDIXhwmbrY13CQZcpu-1" target="vaIDIXhwmbrY13CQZcpu-2">
          <mxGeometry relative="1" as="geometry" />
        </mxCell>
        <mxCell id="vaIDIXhwmbrY13CQZcpu-1" value="" style="strokeWidth=2;html=1;shape=mxgraph.flowchart.start_1;whiteSpace=wrap;" parent="1" vertex="1">
          <mxGeometry x="30" y="210" width="100" height="60" as="geometry" />
        </mxCell>
        <mxCell id="3JgUT-gqx7XL1_imfjOH-4" value="" style="edgeStyle=orthogonalEdgeStyle;rounded=0;orthogonalLoop=1;jettySize=auto;html=1;" edge="1" parent="1" source="vaIDIXhwmbrY13CQZcpu-2" target="vaIDIXhwmbrY13CQZcpu-4">
          <mxGeometry relative="1" as="geometry" />
        </mxCell>
        <mxCell id="vaIDIXhwmbrY13CQZcpu-2" value="&amp;nbsp;Declare Variables: lastName, number of Bathrooms, numOtherRooms, serviceCharge, totalAmount" style="whiteSpace=wrap;html=1;strokeWidth=2;" parent="1" vertex="1">
          <mxGeometry x="190" y="124" width="160" height="72" as="geometry" />
        </mxCell>
        <mxCell id="vaIDIXhwmbrY13CQZcpu-17" value="" style="edgeStyle=orthogonalEdgeStyle;rounded=0;orthogonalLoop=1;jettySize=auto;html=1;" parent="1" source="vaIDIXhwmbrY13CQZcpu-4" target="vaIDIXhwmbrY13CQZcpu-16" edge="1">
          <mxGeometry relative="1" as="geometry" />
        </mxCell>
        <mxCell id="vaIDIXhwmbrY13CQZcpu-4" value="Customer&#39;s&lt;div&gt;last name&lt;/div&gt;" style="shape=parallelogram;perimeter=parallelogramPerimeter;whiteSpace=wrap;html=1;fixedSize=1;strokeWidth=2;" parent="1" vertex="1">
          <mxGeometry x="420" y="130" width="120" height="60" as="geometry" />
        </mxCell>
        <mxCell id="vaIDIXhwmbrY13CQZcpu-19" value="" style="edgeStyle=orthogonalEdgeStyle;rounded=0;orthogonalLoop=1;jettySize=auto;html=1;" parent="1" source="vaIDIXhwmbrY13CQZcpu-16" target="vaIDIXhwmbrY13CQZcpu-18" edge="1">
          <mxGeometry relative="1" as="geometry" />
        </mxCell>
        <mxCell id="vaIDIXhwmbrY13CQZcpu-16" value="Number of&amp;nbsp;&lt;div&gt;bathrooms&lt;/div&gt;" style="shape=parallelogram;perimeter=parallelogramPerimeter;whiteSpace=wrap;html=1;fixedSize=1;strokeWidth=2;" parent="1" vertex="1">
          <mxGeometry x="600" y="130" width="120" height="60" as="geometry" />
        </mxCell>
        <mxCell id="3JgUT-gqx7XL1_imfjOH-6" value="" style="edgeStyle=orthogonalEdgeStyle;rounded=0;orthogonalLoop=1;jettySize=auto;html=1;" edge="1" parent="1" source="vaIDIXhwmbrY13CQZcpu-18" target="vaIDIXhwmbrY13CQZcpu-20">
          <mxGeometry relative="1" as="geometry" />
        </mxCell>
        <mxCell id="vaIDIXhwmbrY13CQZcpu-18" value="Number of other&lt;div&gt;rooms&lt;/div&gt;" style="shape=parallelogram;perimeter=parallelogramPerimeter;whiteSpace=wrap;html=1;fixedSize=1;strokeWidth=2;strokeColor=default;align=center;verticalAlign=middle;fontFamily=Helvetica;fontSize=12;fontColor=default;fillColor=default;" parent="1" vertex="1">
          <mxGeometry x="780" y="130" width="120" height="60" as="geometry" />
        </mxCell>
        <mxCell id="3JgUT-gqx7XL1_imfjOH-7" value="" style="edgeStyle=orthogonalEdgeStyle;rounded=0;orthogonalLoop=1;jettySize=auto;html=1;" edge="1" parent="1" source="vaIDIXhwmbrY13CQZcpu-20" target="vaIDIXhwmbrY13CQZcpu-24">
          <mxGeometry relative="1" as="geometry" />
        </mxCell>
        <mxCell id="vaIDIXhwmbrY13CQZcpu-20" value="Calculate service charge: $40 + ($15 for each bathrooms) + ($10 for each other rooms)" style="whiteSpace=wrap;html=1;strokeWidth=2;" parent="1" vertex="1">
          <mxGeometry x="970" y="125" width="160" height="70" as="geometry" />
        </mxCell>
        <mxCell id="vaIDIXhwmbrY13CQZcpu-24" value="Display customer&quot;s name, number of bathrooms, cost to clean, number of other rooms, total cost, and message &quot;Program complete&quot;" style="shape=parallelogram;perimeter=parallelogramPerimeter;whiteSpace=wrap;html=1;fixedSize=1;strokeWidth=2;" parent="1" vertex="1">
          <mxGeometry x="1200" y="120" width="170" height="80" as="geometry" />
        </mxCell>
        <mxCell id="vaIDIXhwmbrY13CQZcpu-26" value="End" style="strokeWidth=2;html=1;shape=mxgraph.flowchart.start_1;whiteSpace=wrap;" parent="1" vertex="1">
          <mxGeometry x="1420" y="210" width="100" height="60" as="geometry" />
        </mxCell>
        <mxCell id="vaIDIXhwmbrY13CQZcpu-28" value="Start" style="text;html=1;align=center;verticalAlign=middle;whiteSpace=wrap;rounded=0;" parent="1" vertex="1">
          <mxGeometry x="53" y="225" width="50" height="30" as="geometry" />
        </mxCell>
        <mxCell id="3JgUT-gqx7XL1_imfjOH-8" style="edgeStyle=orthogonalEdgeStyle;rounded=0;orthogonalLoop=1;jettySize=auto;html=1;exitX=1;exitY=0.5;exitDx=0;exitDy=0;entryX=0.58;entryY=0;entryDx=0;entryDy=0;entryPerimeter=0;" edge="1" parent="1" source="vaIDIXhwmbrY13CQZcpu-24" target="vaIDIXhwmbrY13CQZcpu-26">
          <mxGeometry relative="1" as="geometry" />
        </mxCell>
      </root>
    </mxGraphModel>
  </diagram>
</mxfile>
